<?xml version="1.0" encoding="utf-8"?>
<!-- Generator: Adobe Illustrator 20.1.0, SVG Export Plug-In . SVG Version: 6.00 Build 0)  -->
<svg version="1.1" id="Layer_1" xmlns="http://www.w3.org/2000/svg" xmlns:xlink="http://www.w3.org/1999/xlink" x="0px" y="0px"
	 viewBox="0 0 223 80" style="enable-background:new 0 0 223 80;" xml:space="preserve">
<style type="text/css">
	.st0{fill:#0B6E44;}
	.st1{fill:#E0A63E;}
	.st2{fill:#B78931;}
</style>
<title>Artboard 1</title>
<g id="_10">
	<circle class="st0" cx="39.4" cy="40" r="34.1"/>
	<path class="st1" d="M35.5,66.7c-0.4,2.3-0.8,4.6-1.4,6.9c3.3,0.5,6.6,0.6,9.9,0.2c-0.6-1.6-1.1-3.3-1.4-5
		c-1.5-7.7-1.9-15.2,2.5-22c0.7-1.1,1.6-2.2,2.7-3c0.9-0.7,2-1.3,3.2-1.6c0.8-0.2,1.7-0.3,2.6-0.3c0.6,0,1,0.1,1,0.1s-0.3-0.1-1-0.2
		c-0.9-0.2-1.8-0.2-2.7-0.2c-1.3,0.1-2.6,0.5-3.7,1.2c-0.6,0.3-1.2,0.7-1.7,1.2v-0.1l0.5-0.9c0.2-0.3,0.3-0.6,0.5-0.8l1-1.6
		c0.3-0.5,0.7-1,1-1.5s0.6-0.9,0.9-1.3l0.9-1.2l0.8-1l0.7-0.8l1.4-1.6l-1.6,1.4l-0.8,0.8l-0.9,0.9l-1.1,1.1
		c-0.4,0.4-0.7,0.8-1.1,1.2s-0.8,0.9-1.2,1.4l-1.2,1.5c-0.2,0.3-0.4,0.5-0.6,0.8L44,43.1c-0.4,0.6-0.8,1.2-1.2,1.8
		c-0.6,1-1.2,2-1.7,3c-0.4-10.8-0.8-20.7-0.8-20.7c0,1-0.5,6.2-1.2,12.9c-0.5-1.5-1.1-2.9-2-4.2c-0.8-1.2-1.9-2.2-3.1-3.1
		c-0.8-0.6-1.7-1.1-2.7-1.4c-0.7-0.3-1.1-0.4-1.1-0.4s0.4,0.2,1,0.5c0.8,0.5,1.6,1.1,2.4,1.7c1,0.9,1.8,1.9,2.4,3.1
		c0.7,1.4,1.1,2.9,1.4,4.4c0.3,2.5,0.4,5,0.2,7.6c-0.5-0.7-1-1.4-1.5-2c-0.5-0.5-1.1-1-1.7-1.4c-1.3-1-2.8-1.8-4.4-2.3
		c-1.4-0.5-2.6-0.8-3.4-1l-1.3-0.3l1.2,0.5c0.8,0.3,1.9,0.8,3.2,1.4c0.5,0.2,1,0.5,1.5,0.8c-0.6,0-1.2,0-1.7,0.1
		c-0.6,0.1-1.3,0.2-1.9,0.4c-0.9,0.3-1.8,0.7-2.5,1.2c-0.2,0.2-0.4,0.3-0.6,0.5l-0.2,0.2l0.2-0.2c0.2-0.1,0.4-0.3,0.7-0.4
		c0.8-0.4,1.7-0.7,2.6-0.8C28.4,45,29,45,29.6,45c0.7,0,1.3,0.1,1.9,0.2c0.6,0.1,1.2,0.4,1.7,0.8c0.5,0.4,1,1,1.3,1.5
		c0.9,1.3,1.5,2.8,1.9,4.4c0.4,1.5,0.5,3.1,0.4,4.7C36.6,60,36.2,63.4,35.5,66.7z"/>
	<path class="st1" d="M23.4,45.7c-0.4,0.5-0.7,0.8-1,1.2s-0.3,1.1,0.4,1s1.1-0.1,1.7-0.2c0.3,0,0.9-0.2,1.1,0.1s-0.9,1.3-1.1,1.5
		c-0.5,0.5-1.2,0.8-1.7,1.4c-1.1,1.1-3.2,3.8-4.8,1.6c-0.3-0.5-0.5-1.1-0.6-1.7c0,0.1,0,0.1,0,0.2s0,0.3,0,0.3c0-0.1,0-0.2,0-0.3
		c0-0.2,0-0.4,0-0.5c0-0.2-0.1-0.4-0.2-0.5c-0.1-0.1-0.1-0.1-0.2-0.1h-0.1H17c0.1,0,0.1,0.1,0.1,0.2c0.1,0.1,0.1,0.3,0.1,0.5
		c0,0.1,0,0.2,0.1,0.3c-0.8-0.4-1.3-1.2-1.4-2.1c0,0,0-0.1,0-0.2c0.1-1,0.8-1.7,1.8-1.9c0.9-0.3,1.5-0.3,2.5-0.6
		c0.8-0.3,1.6-0.6,2.3-1C23.9,44.2,23.7,45.2,23.4,45.7z"/>
	<path class="st1" d="M23.1,39.1c-0.8,0-1.3,0-2-0.1s-1.3,0.6-0.7,1.2s1,1,1.5,1.5c0.2,0.2,0.9,0.8,0.8,1.2s-2,0.1-2.4,0
		c-0.9-0.2-1.7-0.5-2.7-0.6c-2-0.2-6.2-0.2-5.2-3.5c0.2-0.7,0.7-1.3,1.2-1.8l-0.2,0.2l-0.3,0.3c0,0,0.1-0.1,0.3-0.2
		c0.2-0.1,0.4-0.3,0.5-0.5c0.1-0.2,0.2-0.4,0.3-0.6c0-0.1,0-0.2,0-0.3c0,0,0-0.1-0.1-0.1c0,0,0,0.1,0,0.1c0,0.1,0,0.2,0,0.3
		c-0.1,0.2-0.2,0.3-0.3,0.5l-0.2,0.3c-0.2-1.1,0.2-2.2,1-3l0.1-0.1c1-0.6,2.3-0.4,3.2,0.3c1,0.7,1.4,1.3,2.5,2
		c0.9,0.6,1.8,1.1,2.8,1.5C25,38.5,23.9,39.1,23.1,39.1z"/>
	<path class="st1" d="M30.1,28c-0.9-0.4-1.6-0.6-2.3-1s-1.8,0.1-1.4,1.1c0.3,0.8,0.7,1.6,1.1,2.4c0.2,0.4,0.8,1.3,0.4,1.7
		c-0.4,0.4-2.4-0.8-2.8-1c-1-0.6-1.9-1.4-2.9-1.9c-2.2-1.2-7.4-3-4.7-6.5c0.4-0.5,1-1,1.6-1.3l0,0c0.2-0.1,0.5-0.3,0.8-0.4l-0.3,0.1
		c-0.2,0.1-0.5,0.2-0.5,0.2l0,0c0,0,0.2,0,0.5-0.1c0.3-0.1,0.6-0.2,0.8-0.3c0.3-0.1,0.5-0.3,0.6-0.6c0.1-0.1,0.1-0.2,0.1-0.3
		c0,0,0-0.1,0-0.1c0,0,0,0.1,0,0.1c0,0.1-0.1,0.2-0.2,0.3c-0.2,0.2-0.4,0.3-0.6,0.4l-0.4,0.2c0.2-1.4,1.1-2.6,2.4-3.1l0.2-0.1
		c1.5-0.5,2.9,0.6,3.8,1.8s1.1,2.1,2.2,3.5c0.8,1.1,1.7,2.1,2.6,3.1C32.6,28.2,31,28.3,30.1,28z"/>
	<path class="st1" d="M45.7,18.6c-0.4,1.4-1,2.2-1.5,3.9c-0.3,1.3-0.6,2.7-0.8,4c-0.6,2.3-1.7,1.2-1.9,0.2S41,25,40.9,24.2
		s-1.2-1.3-1.7-0.4c-0.4,0.8-0.9,1.6-1.3,2.4c-0.2,0.4-0.6,1.4-1.1,1.4c-0.7-0.1-0.9-2.3-0.9-2.9c-0.2-1.2,0-2.3-0.2-3.5
		c-0.5-2.5-2.1-7.7,2.2-7.7c0.7,0,1.4,0.2,2,0.4l0,0c0.3,0.1,0.5,0.2,0.8,0.4l-0.3-0.1c-0.2-0.1-0.5-0.2-0.5-0.2l0,0
		c0.1,0.1,0.2,0.2,0.4,0.3c0.2,0.2,0.5,0.3,0.7,0.4c0.3,0.1,0.6,0.2,0.9,0.1c0.1,0,0.2-0.1,0.3-0.1c0,0,0.1-0.1,0.1-0.1
		c0,0-0.1,0.1-0.1,0.1c-0.1,0-0.2,0-0.3,0c-0.3,0-0.5-0.1-0.7-0.2l-0.4-0.2c1.2-0.7,2.8-0.7,4,0l0.2,0.1
		C46.1,15.4,46.1,17.2,45.7,18.6z"/>
	<path class="st1" d="M53.3,33.8c0.3-0.9,0.6-1.6,1-2.3s-0.1-1.8-1.2-1.4c-0.8,0.4-1.6,0.7-2.4,1.1c-0.4,0.2-1.3,0.8-1.7,0.4
		s0.7-2.4,1-2.8c0.6-1,1.4-1.9,1.9-2.9c1.2-2.3,3-7.4,6.5-4.8c0.5,0.4,1,0.9,1.3,1.5l0,0c0.1,0.2,0.3,0.5,0.4,0.8l-0.2-0.3
		c-0.1-0.2-0.2-0.5-0.2-0.5l0,0c0,0,0,0.2,0.1,0.5c0.1,0.3,0.2,0.6,0.3,0.8c0.1,0.3,0.4,0.5,0.6,0.6c0.1,0.1,0.2,0.1,0.3,0.1
		c0,0,0.1,0,0.1,0c0,0-0.1,0-0.2,0c-0.1,0-0.2-0.1-0.3-0.2c-0.2-0.2-0.3-0.4-0.5-0.6L60,23.5c1.4,0.2,2.6,1.2,3.2,2.5
		c0,0.1,0.1,0.2,0.1,0.2c0.5,1.5-0.5,2.9-1.7,3.8s-2.1,1.1-3.5,2.2c-1.1,0.8-2.1,1.7-3.1,2.7C53.1,36.3,52.9,34.7,53.3,33.8z"/>
	<path class="st1" d="M56.3,52c0,0,0,0.1,0,0.2c-0.2,0.9-0.9,1.5-1.8,1.8l0.1-0.2c0.1-0.1,0.1-0.3,0.2-0.4c0-0.1,0.1-0.1,0.2-0.1
		h0.1H55c-0.1,0-0.1,0-0.2,0.1c-0.1,0.1-0.3,0.3-0.3,0.4c-0.1,0.2-0.1,0.3-0.1,0.5c0,0.1,0,0.2,0,0.3c0,0,0-0.1,0.1-0.3l0.1-0.2
		c-0.2,0.6-0.5,1.1-0.9,1.5c-2,1.9-3.5-1.2-4.4-2.5c-0.4-0.6-1-1.1-1.4-1.7c-0.2-0.3-1.1-1.3-0.8-1.7s0.8,0,1.1,0.1
		c0.5,0.2,1.1,0.3,1.6,0.5s0.9-0.5,0.6-0.9s-0.5-0.8-0.8-1.4s-0.3-1.5,1-0.7c0.7,0.5,1.4,1,2.1,1.4c1,0.5,1.5,0.7,2.3,1.1
		C55.9,50.2,56.4,51.1,56.3,52z"/>
	<path class="st1" d="M60.7,44.7c-0.9,0-1.8,0.2-2.7,0.1c-0.4,0-2.2,0.1-2.3-0.5s0.7-0.8,1-1c0.6-0.4,1.2-0.8,1.7-1.2
		s0.2-1.3-0.5-1.3s-1.2-0.1-2-0.3s-1.8-0.9,0-1.6c1-0.3,2-0.6,3-1c1.3-0.5,1.8-1,2.9-1.5c1-0.6,2.3-0.4,3.2,0.3l0.1,0.2
		c0.7,0.9,0.8,2.1,0.4,3.1l-0.2-0.3c-0.1-0.2-0.2-0.4-0.2-0.5c0-0.1,0-0.2,0-0.3c0,0,0-0.1,0.1-0.1c0,0-0.1,0.1-0.1,0.1
		c-0.1,0.1-0.1,0.2-0.1,0.3c0,0.2,0.1,0.5,0.2,0.7c0.1,0.2,0.3,0.4,0.4,0.5c0.2,0.2,0.3,0.3,0.3,0.3l0,0c0,0-0.1-0.2-0.2-0.3
		l-0.1-0.2c0.1,0.2,0.3,0.4,0.4,0.5l0,0c0.3,0.5,0.4,1,0.5,1.5C66.9,45.6,62.7,44.8,60.7,44.7z"/>
</g>
<path class="st0" d="M90.8,13.1c-0.1-0.6-0.3-1.1-0.6-1.6C90,11,89.5,10.8,88,10.8h-1.5c-0.6,0-0.7,0.1-0.7,0.6v4.8h2.1
	c1.8,0,1.9-0.2,2.2-1.5h0.6v3.9H90c-0.2-1.4-0.3-1.6-2.2-1.6h-2.1v3.6c0,1.7,0.2,1.8,2,2v0.6h-5.5v-0.6c1.6-0.1,1.8-0.2,1.8-2v-8
	c0-1.7-0.2-1.8-1.7-1.9v-0.5h8.8c0,0.7,0.1,2,0.2,2.9L90.8,13.1z"/>
<path class="st0" d="M101.2,18.6c0.2,2.5-1.7,4.6-4.1,4.8c-0.1,0-0.1,0-0.2,0c-2.4,0-4.4-1.9-4.4-4.3c0,0,0-0.1,0-0.1
	c-0.1-2.5,1.8-4.7,4.3-4.8c0,0,0.1,0,0.1,0c2.4,0,4.3,2,4.3,4.4C101.2,18.5,101.2,18.5,101.2,18.6z M94.4,18.3
	c0,2.5,1.1,4.4,2.7,4.4c1.2,0,2.3-0.9,2.3-3.7c0-2.3-0.9-4.2-2.7-4.2C95.4,14.8,94.4,16,94.4,18.3z"/>
<path class="st0" d="M105.4,16.3c0.6-1,1.5-2.1,2.4-2.1c0.6,0,1.1,0.4,1.2,1c0,0.4-0.3,0.8-0.6,1c-0.2,0.1-0.4,0.1-0.5,0
	c-0.2-0.2-0.5-0.4-0.9-0.4c-0.5,0-1.2,0.6-1.6,1.7V21c0,1.3,0.1,1.4,1.6,1.6v0.5h-4.6v-0.5c1.2-0.1,1.4-0.2,1.4-1.6v-4.1
	c0-1.3-0.1-1.4-1.2-1.5v-0.5c1-0.2,1.9-0.4,2.8-0.8L105.4,16.3L105.4,16.3z"/>
<path class="st0" d="M116.8,21.4c-0.8,1.1-1.9,1.8-3.3,1.9c-2.2-0.1-4-1.9-3.9-4.1c0-0.1,0-0.1,0-0.2c0-1.3,0.5-2.5,1.3-3.5
	c0.7-0.9,1.8-1.4,2.9-1.5l0,0c1.6,0.1,2.9,1.4,3,3c0,0.4-0.1,0.6-0.5,0.6s-2.8,0.3-5.2,0.3c0,2.7,1.6,3.8,3,3.8c0.9,0,1.7-0.4,2.3-1
	L116.8,21.4z M111.3,17.3c1.1,0,2.2,0,3.4-0.1c0.4,0,0.5-0.1,0.5-0.4c0.1-1-0.7-1.9-1.7-2c0,0-0.1,0-0.1,0
	C112.5,14.9,111.6,15.7,111.3,17.3z"/>
<path class="st0" d="M123.3,16.7c-0.4-1.2-1.1-2-2.1-2c-0.7,0-1.3,0.5-1.3,1.3c0,0,0,0.1,0,0.1c0,0.9,0.8,1.3,1.7,1.7
	c1.5,0.6,2.5,1.3,2.5,2.7c0,1.8-1.7,2.8-3.3,2.8c-0.8,0-1.6-0.2-2.3-0.7c-0.2-0.8-0.3-1.6-0.3-2.4l0.5-0.1c0.3,1.3,1.2,2.5,2.4,2.5
	c0.8,0,1.4-0.6,1.4-1.3c0,0,0,0,0-0.1c0-0.9-0.6-1.4-1.6-1.8c-1.2-0.5-2.5-1.2-2.5-2.7c0.1-1.5,1.4-2.7,2.9-2.6c0,0,0,0,0.1,0
	c0.6,0,1.2,0.1,1.8,0.4c0.2,0.7,0.4,1.4,0.4,2.1L123.3,16.7z"/>
<path class="st0" d="M129.2,23.1c-0.3,0.1-0.5,0.2-0.8,0.3c-1.3,0-2-0.8-2-2.4v-5.8H125l-0.1-0.2l0.6-0.6h0.9v-1.4l1.3-1.3h0.3v2.7
	h2.3c0.2,0.2,0.1,0.6-0.1,0.8c0,0,0,0,0,0H128v5.1c0,1.6,0.7,1.9,1.2,1.9c0.4,0,0.8-0.1,1.2-0.3l0.2,0.5L129.2,23.1z"/>
<path class="st0" d="M149.9,10.7c-1.6,0.1-1.8,0.2-1.8,1.9v8.1c0,1.7,0.2,1.8,1.8,1.9v0.6h-5.4v-0.6c1.7-0.1,1.9-0.2,1.9-1.9v-4
	h-6.8v4c0,1.7,0.2,1.8,1.8,1.9v0.6h-5.3v-0.6c1.6-0.1,1.8-0.2,1.8-1.9v-8.1c0-1.7-0.2-1.8-1.8-1.9v-0.6h5.2v0.6
	c-1.5,0.1-1.7,0.2-1.7,1.9v3.2h6.8v-3.2c0-1.7-0.2-1.8-1.7-1.9v-0.6h5.2V10.7z"/>
<path class="st0" d="M150.9,23.1v-0.5c1.3-0.1,1.4-0.2,1.4-1.6v-4.1c0-1.2-0.1-1.3-1.3-1.5v-0.5c1-0.1,1.9-0.4,2.8-0.8V21
	c0,1.4,0.1,1.5,1.4,1.6v0.5L150.9,23.1z M152,11.4c0-0.6,0.4-1,1-1s1,0.4,1,1s-0.4,1-1,1S152,11.9,152,11.4z"/>
<path class="st0" d="M156,23.1v-0.5c1.3-0.1,1.4-0.2,1.4-1.6v-9.5c0-1.4-0.1-1.4-1.4-1.5V9.6c1-0.1,2-0.4,3-0.7V21
	c0,1.3,0.2,1.4,1.4,1.6v0.5L156,23.1z"/>
<path class="st0" d="M161.2,23.1v-0.5c1.3-0.1,1.4-0.2,1.4-1.6v-9.5c0-1.4-0.1-1.4-1.4-1.5V9.6c1-0.1,2-0.4,3-0.7V21
	c0,1.3,0.2,1.4,1.4,1.6v0.5L161.2,23.1z"/>
<path class="st0" d="M171.8,16.7c-0.4-1.2-1.1-2-2.1-2c-0.7,0-1.3,0.5-1.3,1.3c0,0,0,0.1,0,0.1c0,0.9,0.8,1.3,1.7,1.7
	c1.5,0.6,2.5,1.3,2.5,2.7c0,1.8-1.7,2.8-3.3,2.8c-0.8,0-1.6-0.2-2.3-0.7c-0.2-0.8-0.3-1.6-0.3-2.4l0.5-0.1c0.3,1.3,1.2,2.5,2.4,2.5
	c0.8,0,1.4-0.6,1.4-1.3c0,0,0,0,0-0.1c0-0.9-0.6-1.4-1.6-1.8c-1.2-0.5-2.5-1.2-2.5-2.7c0.1-1.5,1.4-2.7,2.9-2.6c0,0,0,0,0.1,0
	c0.6,0,1.2,0.1,1.8,0.4c0.2,0.7,0.4,1.4,0.4,2.1L171.8,16.7z"/>
<path class="st0" d="M90.8,32.1c-0.1-0.6-0.3-1.1-0.6-1.6C90,30,89.5,29.8,88,29.8h-1.5c-0.6,0-0.7,0.1-0.7,0.6v4.8h2.1
	c1.8,0,1.9-0.2,2.2-1.5h0.6v3.9H90c-0.2-1.4-0.3-1.6-2.2-1.6h-2.1v3.6c0,1.7,0.2,1.8,2,2v0.6h-5.5v-0.6c1.6-0.1,1.8-0.2,1.8-2v-8
	c0-1.7-0.2-1.8-1.7-1.9v-0.5h8.8c0,0.7,0.1,2,0.2,2.9L90.8,32.1z"/>
<path class="st0" d="M98.7,42.3c-0.3,0-0.7-0.2-0.9-0.4c-0.2-0.2-0.4-0.5-0.5-0.9c-0.7,0.6-1.5,1-2.4,1.3c-1.3,0-2.4-1.1-2.4-2.4
	c0,0,0,0,0,0c0-1,0.7-1.8,1.6-2c1.1-0.3,2.1-0.7,3.1-1.3v-0.3c0-1.5-0.7-2.3-1.7-2.3c-0.3,0-0.7,0.1-0.9,0.4
	c-0.3,0.4-0.5,0.8-0.6,1.3c-0.1,0.3-0.3,0.5-0.6,0.5c-0.5,0-0.8-0.4-0.9-0.9c0-0.3,0.2-0.5,0.6-0.8c0.9-0.6,1.9-1.1,3-1.4
	c0.6,0,1.2,0.2,1.6,0.5c0.7,0.6,1,1.5,0.9,2.5v3.7c0,0.9,0.4,1.2,0.7,1.2c0.3,0,0.5-0.1,0.7-0.2l0.2,0.5L98.7,42.3z M97.2,37.3
	c-0.4,0.2-1.4,0.6-1.8,0.8c-0.8,0.4-1.2,0.7-1.2,1.5c0,0.8,0.6,1.5,1.4,1.5c0,0,0,0,0,0c0.6,0,1.2-0.3,1.6-0.7L97.2,37.3z"/>
<path class="st0" d="M112,42.1v-0.5c1.2-0.1,1.4-0.2,1.4-1.6v-3.3c0-1.4-0.5-2.3-1.8-2.3c-0.8,0.1-1.6,0.4-2.2,1
	c0,0.3,0.1,0.6,0.1,0.8V40c0,1.3,0.2,1.4,1.3,1.5v0.5h-4.3v-0.5c1.2-0.1,1.4-0.2,1.4-1.5v-3.4c0-1.5-0.5-2.3-1.8-2.3
	c-0.8,0.1-1.6,0.4-2.2,1V40c0,1.3,0.2,1.4,1.2,1.5v0.5h-4.2v-0.5c1.3-0.1,1.5-0.2,1.5-1.5v-4.1c0-1.3-0.1-1.4-1.2-1.6v-0.5
	c1-0.2,1.9-0.4,2.8-0.8v1.6c0.4-0.3,0.8-0.6,1.5-1c0.5-0.3,1-0.5,1.6-0.6c1,0,1.9,0.7,2.2,1.7c0.5-0.4,1.1-0.8,1.7-1.1
	c0.4-0.3,1-0.5,1.5-0.5c1.5,0,2.5,1.1,2.5,3.1V40c0,1.3,0.1,1.4,1.3,1.5v0.5L112,42.1z"/>
<path class="st0" d="M117.4,42.1v-0.5c1.3-0.1,1.4-0.2,1.4-1.6v-4.1c0-1.2-0.1-1.3-1.3-1.5v-0.5c1-0.1,1.9-0.4,2.8-0.8V40
	c0,1.4,0.1,1.5,1.4,1.6v0.5L117.4,42.1z M118.4,30.4c0-0.6,0.4-1,1-1s1,0.4,1,1s-0.4,1-1,1S118.4,30.9,118.4,30.4z"/>
<path class="st0" d="M122.5,42.1v-0.5c1.3-0.1,1.4-0.2,1.4-1.6v-9.5c0-1.4-0.1-1.4-1.4-1.5v-0.5c1-0.1,2-0.4,3-0.7V40
	c0,1.3,0.2,1.4,1.4,1.6v0.5L122.5,42.1z"/>
<path class="st0" d="M136.7,33.9c-1.1,0.2-1.2,0.3-1.8,1.4s-1.1,2.7-2.5,6c-0.8,1.8-1.5,3.6-2.1,5.4c0,0.3-0.3,0.5-0.6,0.5
	c-0.6,0-1.1-0.4-1.1-1c0-0.3,0.2-0.5,0.5-0.7c0.7-0.4,1.2-1,1.5-1.8c0.2-0.4,0.4-0.9,0.6-1.4c0.1-0.3,0.1-0.6,0-0.9
	c-0.8-2.3-1.7-4.7-2.3-6.1c-0.4-1.1-0.6-1.4-1.7-1.5v-0.5h4v0.5c-0.9,0.1-1,0.3-0.8,1.1l1.8,5c0.6-1.4,1.4-3.7,1.8-5
	c0.2-0.7,0.1-1-1-1.1v-0.5h3.6L136.7,33.9z"/>
<path class="st0" d="M147.3,29.1c2.5,0,4.4,0.5,5.6,1.7c1.1,1.1,1.8,2.7,1.7,4.3c0.1,2.1-0.8,4.1-2.5,5.3c-1.7,1.2-3.8,1.8-5.9,1.7
	h-4.7v-0.5c1.7-0.1,1.9-0.2,1.9-1.9v-8c0-1.7-0.2-1.8-1.7-1.9v-0.6H147.3z M145.1,39.5c0,1.5,0.7,1.9,2.1,1.9c3.7,0,5.5-2.8,5.5-6
	c0.1-1.9-0.8-3.7-2.4-4.8c-1-0.6-2.2-0.9-3.4-0.8c-0.5-0.1-1.1,0-1.6,0.3c-0.2,0.1-0.3,0.3-0.3,1.1L145.1,39.5z"/>
<path class="st0" d="M163.6,40.4c-0.8,1.1-1.9,1.8-3.3,1.9c-2.2-0.1-4-1.9-3.9-4.1c0-0.1,0-0.1,0-0.2c0-1.3,0.5-2.5,1.3-3.5
	c0.7-0.9,1.8-1.4,2.9-1.5l0,0c1.6,0.1,2.9,1.4,3,3c0,0.4-0.1,0.6-0.5,0.6s-2.8,0.3-5.2,0.3c0,2.7,1.6,3.8,3,3.8c0.9,0,1.7-0.4,2.3-1
	L163.6,40.4z M158.1,36.3c1.1,0,2.2,0,3.4-0.1c0.4,0,0.5-0.1,0.5-0.4c0.1-1-0.7-1.9-1.7-2c0,0-0.1,0-0.1,0
	C159.2,33.9,158.4,34.7,158.1,36.3L158.1,36.3z"/>
<path class="st0" d="M170.4,42.1v-0.5c1.2-0.1,1.3-0.3,1.3-1.7v-3.3c0-1.4-0.5-2.3-1.8-2.3c-0.8,0.1-1.6,0.4-2.2,1V40
	c0,1.4,0.1,1.4,1.3,1.6v0.5h-4.3v-0.5c1.4-0.1,1.5-0.2,1.5-1.6v-4.1c0-1.3-0.1-1.4-1.2-1.6v-0.5c1-0.2,1.9-0.4,2.8-0.8v1.6
	c0.4-0.3,0.8-0.6,1.3-0.9c0.5-0.4,1.1-0.6,1.7-0.6c1.6,0,2.6,1.1,2.6,3V40c0,1.4,0.1,1.4,1.3,1.6v0.5L170.4,42.1z"/>
<path class="st0" d="M179.3,42.1c-0.3,0.1-0.5,0.2-0.8,0.3c-1.3,0-2-0.8-2-2.4v-5.8h-1.4l-0.1-0.2l0.6-0.6h0.9v-1.4l1.3-1.3h0.3v2.7
	h2.3c0.2,0.2,0.1,0.6-0.1,0.8c0,0,0,0,0,0H178v5.1c0,1.6,0.7,1.9,1.2,1.9c0.4,0,0.8-0.1,1.2-0.3l0.2,0.5L179.3,42.1z"/>
<path class="st0" d="M181.6,42.1v-0.5c1.3-0.1,1.4-0.2,1.4-1.6v-4.1c0-1.2-0.1-1.3-1.3-1.5v-0.5c1-0.1,1.9-0.4,2.8-0.8V40
	c0,1.4,0.1,1.5,1.4,1.6v0.5L181.6,42.1z M182.6,30.4c0-0.6,0.4-1,1-1s1,0.4,1,1s-0.4,1-1,1C183.1,31.4,182.6,30.9,182.6,30.4z"/>
<path class="st0" d="M192.1,35.7c-0.4-1.2-1.1-2-2.1-2c-0.7,0-1.3,0.5-1.3,1.3c0,0,0,0.1,0,0.1c0,0.9,0.8,1.3,1.7,1.7
	c1.5,0.6,2.5,1.3,2.5,2.7c0,1.8-1.7,2.8-3.3,2.8c-0.8,0-1.6-0.2-2.3-0.7c-0.2-0.8-0.3-1.5-0.4-2.3l0.5-0.1c0.3,1.3,1.2,2.5,2.4,2.5
	c0.8,0,1.4-0.6,1.4-1.3c0,0,0,0,0-0.1c0-0.9-0.6-1.4-1.6-1.8c-1.2-0.5-2.5-1.2-2.5-2.7c0.1-1.5,1.4-2.7,2.9-2.6c0,0,0,0,0.1,0
	c0.6,0,1.2,0.1,1.8,0.4c0.2,0.7,0.4,1.4,0.4,2.1L192.1,35.7z"/>
<path class="st0" d="M198,42.1c-0.3,0.1-0.5,0.2-0.8,0.3c-1.3,0-2-0.8-2-2.4v-5.8h-1.4l-0.1-0.2l0.6-0.6h0.9v-1.4l1.3-1.3h0.3v2.7
	h2.3c0.2,0.2,0.1,0.6-0.1,0.8c0,0,0,0,0,0h-2.1v5.1c0,1.6,0.7,1.9,1.2,1.9c0.4,0,0.8-0.1,1.2-0.3l0.2,0.5L198,42.1z"/>
<path class="st0" d="M203.3,35.3c0.6-1,1.5-2.1,2.4-2.1c0.6-0.1,1.1,0.2,1.3,0.7c0.1,0.6-0.2,1.1-0.7,1.3c-0.2,0.1-0.4,0.1-0.5,0
	c-0.2-0.2-0.5-0.4-0.9-0.4c-0.5,0-1.2,0.6-1.6,1.7V40c0,1.3,0.1,1.4,1.6,1.6v0.5h-4.6v-0.5c1.2-0.1,1.4-0.2,1.4-1.6v-4.1
	c0-1.3-0.1-1.4-1.2-1.5v-0.5c1-0.2,1.9-0.4,2.8-0.8L203.3,35.3L203.3,35.3z"/>
<path class="st0" d="M217.2,33.9c-1.1,0.2-1.2,0.3-1.8,1.4s-1.1,2.7-2.5,6c-0.8,1.8-1.5,3.6-2.1,5.4c0,0.3-0.3,0.5-0.6,0.5
	c-0.6,0-1.1-0.4-1.1-1c0-0.3,0.2-0.5,0.5-0.7c0.7-0.4,1.2-1,1.5-1.8c0.2-0.4,0.4-0.9,0.6-1.4c0.1-0.3,0.1-0.6,0-0.9
	c-0.8-2.3-1.7-4.7-2.3-6.1c-0.4-1.1-0.6-1.4-1.7-1.5v-0.5h4v0.5c-0.9,0.1-1,0.3-0.8,1.1l1.8,5c0.6-1.4,1.4-3.7,1.8-5
	c0.2-0.7,0.1-1-1-1.1v-0.5h3.6L217.2,33.9z"/>
<path class="st2" d="M87.6,51.9c-0.1-0.4-0.2-0.7-0.4-1c-0.2-0.4-0.5-0.5-1.5-0.5h-1c-0.4,0-0.4,0-0.4,0.4V54h1.3
	c1.2,0,1.2-0.1,1.4-1h0.4v2.5h-0.4c-0.2-0.9-0.2-1-1.4-1h-1.3v2.3c0,1.1,0.1,1.2,1.3,1.3v0.4h-3.5v-0.4c1-0.1,1.1-0.2,1.1-1.3v-5.2
	c0-1.1-0.1-1.2-1.1-1.3V50h5.7c0,0.5,0.1,1.3,0.1,1.9L87.6,51.9z"/>
<path class="st2" d="M90.6,54c0.4-0.7,0.9-1.4,1.6-1.4c0.4-0.1,0.7,0.2,0.8,0.6c0.1,0.3-0.1,0.6-0.4,0.7c-0.2,0.1-0.3,0-0.3,0
	c-0.1-0.2-0.3-0.3-0.6-0.3c-0.3,0-0.8,0.4-1,1.1v2.4c0,0.9,0.1,0.9,1.1,1v0.3h-3v-0.3c0.8-0.1,0.9-0.2,0.9-1v-2.7
	c0-0.9-0.1-0.9-0.8-1v-0.3c0.6-0.1,1.2-0.3,1.8-0.5C90.6,52.6,90.6,54,90.6,54z"/>
<path class="st2" d="M97.6,58.6c-0.2,0-0.4-0.1-0.6-0.3c-0.2-0.2-0.3-0.4-0.3-0.6c-0.4,0.4-1,0.7-1.5,0.8c-0.9,0-1.6-0.7-1.6-1.6
	c0,0,0,0,0,0c0-0.6,0.4-1.2,1.1-1.3c0.7-0.2,1.4-0.5,2-0.8v-0.2c0-1-0.4-1.5-1.1-1.5c-0.2,0-0.4,0.1-0.6,0.2
	c-0.2,0.3-0.3,0.5-0.4,0.9c0,0.2-0.2,0.3-0.4,0.3c-0.3,0-0.5-0.3-0.6-0.6c0-0.2,0.2-0.3,0.4-0.5c0.6-0.4,1.3-0.7,2-0.9
	c0.4,0,0.8,0.1,1.1,0.3c0.4,0.4,0.6,1,0.6,1.6V57c0,0.6,0.2,0.8,0.5,0.8c0.2,0,0.3-0.1,0.5-0.1l0.1,0.3L97.6,58.6z M96.6,55.3
	c-0.3,0.1-0.9,0.4-1.2,0.5c-0.5,0.2-0.8,0.5-0.8,1c0,0.5,0.4,1,0.9,1c0.4,0,0.7-0.2,1-0.5L96.6,55.3z"/>
<path class="st2" d="M102.8,58.4v-0.3c0.8-0.1,0.9-0.2,0.9-1.1v-2.2c0-0.9-0.3-1.5-1.2-1.5c-0.5,0-1,0.3-1.4,0.6v3.1
	c0,0.9,0.1,0.9,0.8,1v0.3H99v-0.3c0.9-0.1,0.9-0.2,0.9-1v-2.7c0-0.8-0.1-0.9-0.8-1v-0.3c0.6-0.1,1.2-0.3,1.8-0.5v1
	c0.3-0.2,0.6-0.4,0.9-0.6c0.3-0.2,0.7-0.4,1.1-0.4c1,0,1.7,0.7,1.7,2v2.5c0,0.9,0.1,0.9,0.8,1v0.3H102.8z"/>
<path class="st2" d="M110.7,58.5c-0.6-0.7-1.4-1.7-2.1-2.6c-0.2-0.2-0.3-0.3-0.4-0.3c-0.1,0-0.1,0-0.2,0V57c0,0.9,0.1,0.9,0.9,1v0.3
	H106V58c0.9-0.1,0.9-0.2,0.9-1v-6.1c0-0.9-0.1-0.9-0.9-1v-0.3c0.6-0.1,1.3-0.2,1.9-0.5v6.1c0.3-0.1,0.6-0.2,0.8-0.5
	c0.3-0.4,0.6-0.7,0.9-1.1c0.3-0.4,0.2-0.5-0.4-0.6v-0.3l2.7-0.1V53c-0.6,0-1.2,0.3-1.7,0.8c-0.3,0.3-0.6,0.6-1.1,1.2
	c0.6,0.8,1.3,1.6,2,2.4c0.3,0.4,0.8,0.7,1.3,0.7v0.3L110.7,58.5z"/>
<path class="st2" d="M119.4,50c1.3-0.1,2.6,0.3,3.7,1.1c0.7,0.7,1.1,1.7,1.1,2.8c0.1,1.3-0.5,2.6-1.6,3.5c-1.1,0.8-2.5,1.2-3.9,1.1
	h-3.1v-0.3c1.1-0.1,1.2-0.2,1.2-1.3v-5.3c0-1.1-0.1-1.2-1.1-1.2V50H119.4z M118,56.7c0,1,0.4,1.2,1.4,1.2c2.4,0,3.6-1.8,3.6-3.9
	c0.1-1.2-0.5-2.4-1.5-3.1c-0.7-0.4-1.4-0.6-2.2-0.5c-0.3,0-0.7,0-1,0.2c-0.1,0.1-0.2,0.2-0.2,0.7L118,56.7z"/>
<path class="st2" d="M125,57.8c0-0.4,0.3-0.7,0.7-0.7c0.4,0,0.7,0.3,0.7,0.7c0,0,0,0,0,0c0,0.4-0.3,0.7-0.7,0.7
	C125.3,58.6,125,58.2,125,57.8C125,57.8,125,57.8,125,57.8z"/>
<path class="st2" d="M142.6,50.3c-0.9,0.1-1,0.2-1.4,1.3c-0.3,0.8-1.1,3.3-2.1,6.9h-0.4c-0.7-2.1-1.6-4.6-2.3-6.5l0,0
	c-0.7,2.3-1.5,4.4-2.1,6.5h-0.4c-0.7-2.3-1.4-4.6-2.1-7c-0.3-1.1-0.5-1.2-1.3-1.3V50h3.2v0.4c-0.9,0.1-1,0.2-0.8,0.9
	c0.5,1.8,1,3.5,1.6,5.4l0,0c0.7-2.2,1.4-4.4,2.1-6.5h0.4c0.7,2.1,1.5,4.2,2.3,6.5l0,0c0.6-1.7,1.3-4.3,1.5-5.2s0.1-0.9-0.9-1V50h2.9
	L142.6,50.3z"/>
<path class="st2" d="M144.1,54c0.4-0.7,0.9-1.4,1.6-1.4c0.4-0.1,0.7,0.2,0.8,0.6c0.1,0.3-0.1,0.6-0.4,0.7c-0.2,0.1-0.3,0-0.3,0
	c-0.1-0.2-0.3-0.3-0.6-0.3c-0.3,0-0.8,0.4-1,1.1v2.4c0,0.9,0.1,0.9,1.1,1v0.3h-3v-0.3c0.8-0.1,0.9-0.2,0.9-1v-2.7
	c0-0.9-0.1-0.9-0.8-1v-0.3c0.6-0.1,1.2-0.3,1.8-0.5L144.1,54L144.1,54z"/>
<path class="st2" d="M147,58.4v-0.3c0.8-0.1,0.9-0.2,0.9-1v-2.7c0-0.8,0-0.9-0.8-1v-0.3c0.6-0.1,1.3-0.3,1.9-0.5v4.5
	c0,0.9,0.1,1,0.9,1v0.3L147,58.4z M147.7,50.8c0-0.4,0.3-0.7,0.7-0.7c0,0,0,0,0,0c0.4,0,0.7,0.3,0.7,0.6c0,0,0,0,0,0
	c0,0.4-0.3,0.7-0.7,0.7C148,51.4,147.7,51.2,147.7,50.8z"/>
<path class="st2" d="M156.1,52.8c-0.1,0.3-0.3,0.5-0.6,0.7h-0.7c0.3,0.3,0.4,0.7,0.4,1.1c0,1.2-1,2.1-2.1,2.1c0,0-0.1,0-0.1,0
	c-0.2,0-0.4,0-0.7-0.1c-0.2,0.1-0.3,0.3-0.4,0.5c0,0.2,0.2,0.5,0.8,0.5h1.4c0.8,0,1.9,0.3,1.9,1.5s-1.5,2.6-3.2,2.6
	c-1.5,0-2.2-0.8-2.3-1.6c0-0.3,0.1-0.5,0.3-0.7c0.3-0.3,0.8-0.7,1.1-0.9c-0.4-0.1-0.8-0.4-1-0.7c-0.1-0.2-0.1-0.4-0.1-0.5
	c0.4-0.2,0.8-0.4,1.1-0.8c-0.7-0.3-1.1-1-1.1-1.7c0-1.2,1.1-2.2,2.3-2.2c0,0,0,0,0,0l0,0c0.4,0,0.9,0.1,1.2,0.3
	C154.9,53,155.6,52.8,156.1,52.8L156.1,52.8z M152.1,58.8c-0.3,0.2-0.5,0.6-0.6,1c0,0.7,0.8,1.2,1.7,1.2c1.2,0,1.9-0.6,1.9-1.4
	c0-0.4-0.2-0.8-0.6-0.9c-0.4-0.1-0.8-0.2-1.3-0.2C152.8,58.5,152.4,58.6,152.1,58.8L152.1,58.8z M151.8,54.5c0,1,0.5,1.7,1.2,1.7
	s1.1-0.5,1.1-1.5s-0.5-1.7-1.2-1.7C152.4,53,151.9,53.5,151.8,54.5L151.8,54.5z"/>
<path class="st2" d="M160.2,58.4v-0.3c0.8-0.1,0.9-0.2,0.9-1v-2.2c0-1.1-0.4-1.6-1.3-1.6c-0.5,0-1,0.3-1.4,0.7v3.1
	c0,0.8,0.1,0.9,0.8,1v0.3h-2.8v-0.3c0.8-0.1,0.9-0.1,0.9-1v-6.2c0-0.8,0-0.9-0.9-1v-0.3c0.6-0.1,1.3-0.3,1.9-0.5v4.4
	c0.5-0.5,1.1-0.9,1.9-1c1.1,0,1.8,0.7,1.8,2.2v2.3c0,0.9,0.1,0.9,0.9,1v0.3L160.2,58.4z"/>
<path class="st2" d="M165.9,58.4c-0.2,0.1-0.4,0.2-0.6,0.2c-0.8,0-1.3-0.5-1.3-1.5v-3.8h-0.9l-0.1-0.1l0.4-0.4h0.6v-0.9l0.9-0.9h0.2
	v1.8h1.5c0.1,0.2,0.1,0.4-0.1,0.5c0,0,0,0,0,0h-1.4v3.4c0,1,0.4,1.2,0.8,1.2c0.3,0,0.5-0.1,0.8-0.2l0.1,0.3L165.9,58.4z"/>
<path class="st2" d="M169.3,58.2c0,1-0.9,1.6-1.7,1.8l-0.1-0.4c0.6-0.3,1-0.6,1-1.1c0-0.4-0.4-0.8-0.8-0.9c-0.1,0-0.2-0.1-0.2-0.3
	c0-0.3,0.3-0.6,0.6-0.5C168.8,56.8,169.4,57.4,169.3,58.2z"/>
<path class="st2" d="M177,50c1.3-0.1,2.6,0.3,3.7,1.1c0.7,0.7,1.1,1.7,1.1,2.8c0.1,1.3-0.5,2.6-1.6,3.5c-1.1,0.8-2.5,1.2-3.9,1.1
	h-3.1v-0.3c1.1-0.1,1.2-0.2,1.2-1.3v-5.3c0-1.1-0.1-1.2-1.1-1.2V50H177z M175.6,56.8c0,1,0.4,1.2,1.4,1.2c2.4,0,3.6-1.8,3.6-3.9
	c0.1-1.2-0.5-2.5-1.5-3.2c-0.7-0.4-1.4-0.6-2.2-0.5c-0.3,0-0.7,0-1,0.2c-0.1,0.1-0.2,0.2-0.2,0.7L175.6,56.8z"/>
<path class="st2" d="M189.9,58.4v-0.4c1.1-0.1,1.1-0.2,1.1-1.5l-0.1-5.3h-0.1l-3.2,7.1h-0.3l-2.9-6.9l0,0l-0.2,3.7
	c-0.1,1.1-0.1,1.6,0,2.2s0.3,0.7,1.2,0.8v0.4h-3v-0.4c0.8-0.1,1-0.2,1.1-0.8c0.1-0.8,0.2-1.6,0.2-2.4l0.2-2.7
	c0.1-1.7,0.1-1.7-1.1-1.9V50h2l3,6.5l3-6.5h2.2v0.4c-1.2,0.1-1.2,0.1-1.2,1.5l0.1,4.7c0,1.4,0.1,1.5,1.2,1.5v0.4L189.9,58.4z"/>
<path class="st2" d="M198,50c1.3-0.1,2.6,0.3,3.7,1.1c0.7,0.7,1.1,1.7,1.1,2.8c0.1,1.3-0.5,2.6-1.6,3.5c-1.1,0.8-2.5,1.2-3.9,1.1
	h-3.1v-0.3c1.1-0.1,1.2-0.2,1.2-1.3v-5.3c0-1.1-0.1-1.2-1.1-1.2V50H198z M196.6,56.8c0,1,0.4,1.2,1.4,1.2c2.4,0,3.6-1.8,3.6-3.9
	c0.1-1.2-0.5-2.4-1.5-3.1c-0.7-0.4-1.4-0.6-2.2-0.5c-0.3,0-0.7,0-1,0.2c-0.1,0.1-0.2,0.2-0.2,0.7L196.6,56.8z"/>
<path class="st2" d="M86.4,66.9c1.3,0.2,2.3,0.8,2.3,2.1c0,0.8-0.5,1.6-1.2,2c-0.8,0.4-1.7,0.6-2.6,0.5H82v-0.4
	c1.1-0.1,1.2-0.2,1.2-1.2v-5.3c0-1.1-0.1-1.2-1.1-1.2V63h3.3c0.7-0.1,1.4,0.1,2,0.4c0.5,0.3,0.7,0.9,0.7,1.5
	C88.1,65.9,87.4,66.8,86.4,66.9L86.4,66.9z M84.9,66.7c1.4,0,2-0.6,2-1.7c0.1-0.9-0.6-1.6-1.4-1.7c-0.1,0-0.2,0-0.3,0
	c-0.3,0-0.5,0-0.7,0.1c-0.1,0.1-0.2,0.2-0.2,0.7v2.6L84.9,66.7z M84.3,69.8c0,0.9,0.2,1.2,1.1,1.2c1,0.1,1.9-0.6,2-1.6
	c0-0.1,0-0.2,0-0.3c0-1.3-0.9-1.9-2.5-1.9h-0.6V69.8z"/>
<path class="st2" d="M91.5,67c0.4-0.7,0.9-1.4,1.6-1.4c0.4-0.1,0.7,0.2,0.8,0.6c0.1,0.3-0.1,0.6-0.4,0.7c-0.2,0.1-0.3,0.1-0.3,0
	c-0.1-0.2-0.3-0.3-0.6-0.3c-0.3,0-0.8,0.4-1,1.1v2.4c0,0.9,0.1,0.9,1.1,1v0.3h-3v-0.3c0.8-0.1,0.9-0.2,0.9-1v-2.7
	c0-0.9-0.1-0.9-0.8-1v-0.3c0.6-0.1,1.2-0.3,1.8-0.5C91.5,65.6,91.5,67,91.5,67z"/>
<path class="st2" d="M98.5,71.6c-0.2,0-0.4-0.1-0.6-0.3c-0.2-0.2-0.3-0.4-0.3-0.6c-0.4,0.4-1,0.7-1.5,0.8c-0.9,0-1.6-0.7-1.6-1.6
	c0,0,0,0,0,0c0-0.6,0.4-1.2,1.1-1.3c0.7-0.2,1.4-0.5,2-0.8v-0.2c0-0.9-0.4-1.5-1.1-1.5c-0.2,0-0.4,0.1-0.6,0.2
	c-0.2,0.3-0.3,0.5-0.4,0.9c0,0.2-0.2,0.3-0.4,0.3c-0.3,0-0.5-0.3-0.6-0.6c0-0.2,0.2-0.3,0.4-0.5c0.6-0.4,1.3-0.7,2-0.9
	c0.4,0,0.8,0.1,1.1,0.3c0.4,0.4,0.6,1,0.6,1.6V70c0,0.6,0.2,0.8,0.5,0.8c0.2,0,0.3-0.1,0.5-0.1l0.1,0.3L98.5,71.6z M97.5,68.3
	c-0.3,0.1-0.9,0.4-1.2,0.6c-0.5,0.2-0.8,0.5-0.8,1c0,0.5,0.4,1,0.9,1c0.4,0,0.7-0.2,1-0.5L97.5,68.3z"/>
<path class="st2" d="M106.4,71.1c-0.7,0.1-1.3,0.3-2,0.5v-0.8l-0.8,0.5c-0.3,0.2-0.6,0.3-1,0.4c-1.4-0.1-2.5-1.3-2.4-2.8
	c0.1-1.8,1.5-3.2,3.3-3.2c0.3,0,0.6,0.1,0.9,0.2v-1.9c0-0.8-0.1-0.9-1-1v-0.3c0.7-0.1,1.3-0.2,2-0.4v7.8c0,0.7,0.1,0.7,0.6,0.8h0.4
	L106.4,71.1z M104.4,66.8c-0.3-0.4-0.8-0.7-1.3-0.7c-0.6,0-1.7,0.5-1.7,2.4c0,1.6,0.9,2.3,1.8,2.3c0.5,0,0.9-0.2,1.2-0.4L104.4,66.8
	z"/>
<path class="st2" d="M106.8,71.4v-0.3c0.8-0.1,0.9-0.2,0.9-1v-6.2c0-0.9-0.1-0.9-0.9-1v-0.3c0.7-0.1,1.3-0.2,1.9-0.5v7.9
	c0,0.9,0.1,0.9,0.9,1v0.3L106.8,71.4z"/>
<path class="st2" d="M115,70.3c-0.5,0.7-1.3,1.2-2.1,1.2c-1.4,0-2.6-1.2-2.5-2.6c0-0.1,0-0.1,0-0.2c0-0.8,0.3-1.6,0.9-2.3
	c0.5-0.6,1.2-0.9,1.9-0.9l0,0c1.1,0,2,0.9,2,2c0,0.3-0.1,0.4-0.3,0.4s-1.8,0.2-3.4,0.2c0,1.8,1,2.5,2,2.5c0.6,0,1.1-0.2,1.5-0.7
	L115,70.3z M111.4,67.7c0.7,0,1.5,0,2.2,0c0.2,0,0.3-0.1,0.3-0.3c0.1-0.7-0.4-1.2-1.1-1.3c0,0-0.1,0-0.1,0
	C112.2,66.1,111.6,66.6,111.4,67.7z"/>
<path class="st2" d="M121.7,66.1c-0.7,0.1-0.8,0.2-1.1,0.9s-0.7,1.8-1.6,3.9c-0.5,1.1-1,2.3-1.3,3.5c0,0.2-0.2,0.3-0.4,0.3
	c-0.4,0-0.7-0.3-0.7-0.6c0-0.2,0.1-0.3,0.3-0.5c0.4-0.3,0.8-0.7,1-1.1c0.2-0.3,0.3-0.6,0.4-0.9c0.1-0.2,0.1-0.4,0-0.6
	c-0.5-1.5-1.1-3.1-1.5-4c-0.3-0.7-0.4-0.9-1.1-1v-0.3h2.6v0.3c-0.6,0.1-0.7,0.2-0.5,0.7l1.2,3.2c0.4-0.9,0.9-2.4,1.2-3.2
	c0.2-0.5,0.1-0.6-0.7-0.7v-0.3h2.3L121.7,66.1z"/>
<path class="st2" d="M130,71.4v-0.4c0.8-0.1,0.9-0.2,0.8-0.7s-0.4-1.2-0.7-2h-2.8c-0.2,0.6-0.4,1.1-0.6,1.7c-0.3,0.8-0.2,0.9,0.8,1
	v0.4h-2.8V71c0.8-0.1,1-0.2,1.5-1.3l2.7-6.8l0.4-0.1c0.8,2.2,1.7,4.7,2.5,7c0.4,1.1,0.6,1.2,1.4,1.3v0.4H130z M128.7,64.4
	L128.7,64.4c-0.4,1.1-0.8,2.2-1.2,3.3h2.4L128.7,64.4z"/>
<path class="st2" d="M134.1,70.8c0-0.4,0.3-0.7,0.7-0.7c0.4,0,0.7,0.3,0.7,0.7s-0.3,0.7-0.7,0.7C134.5,71.6,134.1,71.2,134.1,70.8z"
	/>
<path class="st2" d="M143.5,63c1.3-0.1,2.6,0.3,3.7,1.1c0.7,0.7,1.1,1.7,1.1,2.8c0.1,1.3-0.5,2.6-1.6,3.5c-1.1,0.8-2.5,1.2-3.9,1.1
	h-3.1v-0.3c1.1-0.1,1.2-0.2,1.2-1.3v-5.3c0-1.1-0.1-1.2-1.1-1.2V63H143.5z M142.1,69.8c0,1,0.4,1.2,1.4,1.2c2.4,0,3.6-1.8,3.6-3.9
	c0.1-1.2-0.5-2.4-1.5-3.1c-0.7-0.4-1.4-0.6-2.2-0.5c-0.3,0-0.7,0-1,0.2c-0.1,0.1-0.2,0.2-0.2,0.7L142.1,69.8z"/>
<path class="st2" d="M155.1,68.5c0.1,1.6-1.1,3-2.7,3.1c0,0-0.1,0-0.1,0c-1.6,0-2.8-1.2-2.9-2.8c0,0,0-0.1,0-0.1
	c-0.1-1.6,1.2-3,2.9-3.1C153.8,65.6,155.1,66.9,155.1,68.5C155.1,68.4,155.1,68.5,155.1,68.5z M150.6,68.3c0,1.6,0.7,2.9,1.8,2.9
	c0.8,0,1.5-0.6,1.5-2.4c0-1.5-0.6-2.8-1.8-2.8C151.3,66,150.6,66.8,150.6,68.3L150.6,68.3z"/>
<path class="st2" d="M157.8,67c0.4-0.7,0.9-1.4,1.6-1.4c0.4-0.1,0.7,0.2,0.8,0.6c0.1,0.3-0.1,0.6-0.4,0.7c-0.2,0.1-0.3,0.1-0.3,0
	c-0.1-0.2-0.3-0.3-0.6-0.3c-0.3,0-0.8,0.4-1,1.1v2.4c0,0.9,0.1,0.9,1.1,1v0.3h-3v-0.3c0.8-0.1,0.9-0.2,0.9-1v-2.7
	c0-0.9-0.1-0.9-0.8-1v-0.3c0.6-0.1,1.2-0.3,1.8-0.5L157.8,67L157.8,67z"/>
<path class="st2" d="M164,67.3c-0.3-0.8-0.7-1.3-1.3-1.3c-0.5,0-0.8,0.4-0.8,0.8c0,0,0,0.1,0,0.1c0,0.6,0.5,0.9,1.1,1.1
	c1,0.4,1.6,0.9,1.6,1.8c-0.1,1.1-1.1,1.9-2.1,1.8c-0.5,0-1-0.1-1.5-0.4c-0.1-0.5-0.2-1-0.2-1.5l0.4-0.1c0.2,0.9,0.8,1.6,1.6,1.6
	c0.5,0,0.9-0.4,0.9-0.9c0,0,0,0,0,0c0-0.6-0.4-0.9-1-1.2s-1.6-0.8-1.6-1.8c0.1-1,0.9-1.8,1.9-1.7c0,0,0.1,0,0.1,0
	c0.4,0,0.8,0.1,1.1,0.2c0.1,0.4,0.2,0.9,0.3,1.4L164,67.3z"/>
<path class="st2" d="M170.3,70.3c-0.5,0.7-1.3,1.2-2.2,1.3c-1.4,0-2.6-1.2-2.6-2.6c0,0,0-0.1,0-0.1c0-1,0.5-2,1.3-2.5
	c0.6-0.4,1.2-0.7,1.9-0.7l0,0c0.4,0,0.8,0.1,1.2,0.3c0.1,0.1,0.2,0.2,0.2,0.4c0,0.3-0.2,0.5-0.4,0.6c-0.1,0-0.1,0-0.2-0.1
	c-0.4-0.3-0.8-0.5-1.3-0.5c-0.9,0-1.6,0.7-1.6,2.1c-0.2,1.2,0.7,2.2,1.8,2.4c0.1,0,0.1,0,0.2,0c0.6,0,1.2-0.3,1.5-0.7L170.3,70.3z"
	/>
<path class="st2" d="M174.4,71.4v-0.3c0.8-0.1,0.9-0.2,0.9-1v-2.2c0-1.1-0.4-1.6-1.3-1.6c-0.5,0-1,0.3-1.4,0.7v3.1
	c0,0.8,0.1,0.9,0.8,1v0.3h-2.8v-0.3c0.8-0.1,0.9-0.1,0.9-1v-6.2c0-0.8,0-0.9-0.9-1v-0.3c0.6-0.1,1.3-0.3,1.9-0.5v4.4
	c0.5-0.5,1.1-0.9,1.9-0.9c1.1,0,1.8,0.7,1.8,2.2v2.3c0,0.9,0.1,0.9,0.9,1v0.3L174.4,71.4z"/>
<path class="st2" d="M184.5,63c1.3-0.1,2.6,0.3,3.7,1.1c0.7,0.7,1.1,1.7,1.1,2.8c0.1,1.3-0.5,2.6-1.6,3.5c-1.1,0.8-2.5,1.2-3.9,1.1
	h-3.1v-0.3c1.1-0.1,1.2-0.2,1.2-1.3v-5.3c0-1.1-0.1-1.2-1.1-1.2V63H184.5z M183.1,69.8c0,1,0.4,1.2,1.4,1.2c2.4,0,3.6-1.8,3.6-3.9
	c0.1-1.2-0.5-2.4-1.5-3.1c-0.7-0.4-1.4-0.6-2.2-0.5c-0.3,0-0.7,0-1,0.2c-0.1,0.1-0.2,0.2-0.2,0.7L183.1,69.8z"/>
<path class="st2" d="M194,63c1.3-0.1,2.6,0.3,3.7,1.1c0.7,0.7,1.1,1.7,1.1,2.8c0.1,1.3-0.5,2.6-1.6,3.5c-1.1,0.8-2.5,1.2-3.9,1.1
	h-3.1v-0.3c1.1-0.1,1.2-0.2,1.2-1.3v-5.3c0-1.1-0.1-1.2-1.1-1.2V63H194z M192.6,69.8c0,1,0.4,1.2,1.4,1.2c2.4,0,3.6-1.8,3.6-3.9
	c0.1-1.2-0.5-2.4-1.5-3.1c-0.7-0.4-1.4-0.6-2.2-0.5c-0.3,0-0.7,0-1,0.2c-0.1,0.1-0.2,0.2-0.2,0.7L192.6,69.8z"/>
<path class="st2" d="M204.3,64.9c-0.2-0.8-0.6-1.7-1.7-1.7c-0.7-0.1-1.4,0.5-1.4,1.3c0,0.1,0,0.1,0,0.2c0,0.9,0.6,1.4,1.6,1.9
	s2.2,1.1,2.2,2.6c-0.1,1.4-1.3,2.5-2.7,2.5c0,0-0.1,0-0.1,0c-0.4,0-0.9-0.1-1.3-0.2c-0.2-0.1-0.4-0.2-0.6-0.3
	c-0.1-0.3-0.3-1.4-0.4-2l0.4-0.1c0.2,0.8,0.8,2.1,2.1,2.1c0.8,0.1,1.5-0.5,1.6-1.3c0-0.1,0-0.2,0-0.3c0-1-0.7-1.4-1.7-1.9
	s-2.1-1.1-2.1-2.6c0.1-1.3,1.2-2.4,2.5-2.3c0.1,0,0.1,0,0.2,0c0.6,0,1.1,0.1,1.6,0.3c0.1,0.5,0.1,1,0.2,1.8L204.3,64.9z"/>
</svg>
